<svg width="48" height="49" viewBox="0 0 48 49" fill="none" xmlns="http://www.w3.org/2000/svg">
<g clip-path="url(#clip0_358_2820)">
<path fill-rule="evenodd" clip-rule="evenodd" d="M24.0003 1.00391C18.3027 1.00688 12.792 3.03493 8.45349 6.72542C4.11497 10.4159 1.23156 15.5282 0.318845 21.1481C-0.593873 26.7681 0.523609 32.5292 3.4715 37.4013C6.41938 42.2735 11.0054 45.939 16.4096 47.7424C17.6019 47.9648 18.0509 47.2221 18.0509 46.5907C18.0509 45.9593 18.0271 44.1285 18.0191 42.1269C11.3425 43.5765 9.93173 39.2954 9.93173 39.2954C8.8428 36.5155 7.26903 35.7847 7.26903 35.7847C5.09119 34.2995 7.43198 34.3273 7.43198 34.3273C9.8443 34.498 11.1121 36.8014 11.1121 36.8014C13.2502 40.4669 16.7275 39.4066 18.0947 38.7871C18.3093 37.2343 18.9332 36.1779 19.6207 35.5782C14.2874 34.9746 8.68383 32.9174 8.68383 23.7278C8.65078 21.3445 9.5358 19.0397 11.1558 17.2903C10.9094 16.6867 10.0867 14.2483 11.3902 10.9362C11.3902 10.9362 13.4052 10.2928 17.9914 13.3944C21.9251 12.3194 26.0755 12.3194 30.0092 13.3944C34.5914 10.2928 36.6024 10.9362 36.6024 10.9362C37.9099 14.2403 37.0872 16.6787 36.8408 17.2903C38.4659 19.04 39.3528 21.3488 39.3167 23.7357C39.3167 32.9452 33.7012 34.9746 28.3599 35.5663C29.2184 36.3129 29.9854 37.7704 29.9854 40.0102C29.9854 43.219 29.9576 45.8004 29.9576 46.5907C29.9576 47.2301 30.3907 47.9767 31.6068 47.7424C37.0117 45.9388 41.5982 42.2726 44.546 37.3996C47.4938 32.5267 48.6107 26.7647 47.697 21.1442C46.7832 15.5238 43.8984 10.4114 39.5584 6.72156C35.2185 3.03171 29.7065 1.00499 24.0082 1.00391H24.0003Z" fill="white"/>
<path d="M9.08912 35.4391C9.03745 35.5583 8.84669 35.594 8.6917 35.5106C8.53671 35.4272 8.42147 35.2723 8.4771 35.1492C8.53274 35.0261 8.71953 34.9943 8.87452 35.0777C9.02951 35.1611 9.14873 35.32 9.08912 35.4391Z" fill="white"/>
<path d="M10.0625 36.5253C9.98016 36.5667 9.88599 36.5783 9.7961 36.558C9.7062 36.5377 9.62616 36.4868 9.56967 36.4141C9.41467 36.2473 9.38286 36.017 9.50209 35.9137C9.62131 35.8105 9.83593 35.8581 9.99093 36.0249C10.1459 36.1917 10.1817 36.422 10.0625 36.5253Z" fill="white"/>
<path d="M11.0087 37.9032C10.8617 38.0064 10.6113 37.9032 10.4722 37.6967C10.4337 37.6596 10.4032 37.6152 10.3823 37.5661C10.3614 37.517 10.3506 37.4641 10.3506 37.4107C10.3506 37.3574 10.3614 37.3045 10.3823 37.2554C10.4032 37.2063 10.4337 37.1619 10.4722 37.1248C10.6193 37.0255 10.8696 37.1248 11.0087 37.3273C11.1478 37.5299 11.1518 37.7999 11.0087 37.9032V37.9032Z" fill="white"/>
<path d="M12.2922 39.2378C12.1611 39.3847 11.8948 39.345 11.6762 39.1465C11.4577 38.9479 11.406 38.6778 11.5371 38.5349C11.6683 38.3919 11.9345 38.4316 12.1611 38.6262C12.3876 38.8208 12.4313 39.0948 12.2922 39.2378V39.2378Z" fill="white"/>
<path d="M14.0923 40.0147C14.0327 40.2014 13.7625 40.2848 13.4922 40.2053C13.222 40.1259 13.0432 39.9035 13.0948 39.7129C13.1465 39.5223 13.4207 39.4349 13.6949 39.5223C13.9691 39.6096 14.144 39.8201 14.0923 40.0147Z" fill="white"/>
<path d="M16.0557 40.1503C16.0557 40.3449 15.8331 40.5117 15.547 40.5157C15.2608 40.5197 15.0264 40.3608 15.0264 40.1662C15.0264 39.9716 15.2489 39.8048 15.535 39.8009C15.8212 39.7969 16.0557 39.9518 16.0557 40.1503Z" fill="white"/>
<path d="M17.8838 39.8445C17.9196 40.0391 17.7208 40.2416 17.4347 40.2893C17.1486 40.3369 16.8982 40.2217 16.8624 40.0311C16.8267 39.8405 17.0333 39.634 17.3115 39.5824C17.5897 39.5307 17.848 39.6499 17.8838 39.8445Z" fill="white"/>
</g>
<defs>
<clipPath id="clip0_358_2820">
<rect width="48" height="48.24" fill="white"/>
</clipPath>
</defs>
</svg>
