<svg width="49" height="53" viewBox="0 0 49 53" fill="none" xmlns="http://www.w3.org/2000/svg">
<path fill-rule="evenodd" clip-rule="evenodd" d="M24.5 0L49 14.1943V38.8059L24.5 53L0 38.8059V14.1943L24.5 0ZM24.5 13.3977C17.2141 13.3977 11.3077 19.2638 11.3077 26.5001C11.3077 33.7364 17.2141 39.6026 24.5 39.6026H25.1859C28.8667 39.6026 32.3967 38.1504 34.9992 35.5654L35.2559 35.3108L32.5905 32.6637L32.3341 32.9183C30.4383 34.8012 27.867 35.859 25.1859 35.859H24.5C19.2958 35.859 15.0769 31.6689 15.0769 26.5001C15.0769 21.3313 19.2958 17.1412 24.5 17.1412H25.1859C27.867 17.1412 30.4383 18.199 32.3341 20.0819L32.5905 20.3365L35.2559 17.6895L34.9992 17.4348C32.3967 14.8499 28.8667 13.3977 25.1859 13.3977H24.5Z" fill="#107AF2"/>
</svg>
