<svg width="252" height="232" viewBox="0 0 252 232" fill="none" xmlns="http://www.w3.org/2000/svg">
<path d="M53.5422 181.49C63.4678 189.806 75.5709 195.495 87.4508 200.337C97.1747 204.304 109.639 210.781 122.337 216.824C110.924 220.411 99.6601 223.344 90.6054 224.878C89.4158 225.071 95.5072 231.339 96.6543 230.985C107.169 227.789 117.844 223.912 128.359 219.628C139.851 224.899 151.2 229.419 160.542 230.995C161.726 231.194 165.38 224.878 164.201 224.679C155.348 223.183 145.061 220.524 134.355 217.135C151.997 209.655 168.97 201.194 183.654 193.13C199.591 184.364 211.561 171.919 219.421 155.378C226.713 140.059 231.853 123.121 232.618 106.108C233.659 82.5427 225.82 59.4334 213.664 39.5733C210.106 33.7611 206.123 27.9596 201.715 22.571C202.108 21.075 202.151 19.622 201.901 18.2547C201.604 16.6301 200.972 15.0644 200.01 13.6704C198.168 10.8179 195.172 8.52304 192.103 6.80189C189.017 5.10222 185.81 4.02982 183.415 3.44542C182.214 3.1505 181.216 2.98427 180.526 2.88243L179.474 2.79124L179.926 3.74566C180.244 4.36762 180.69 5.24699 181.264 6.32471C182.406 8.45332 183.962 11.2576 185.799 13.9867C186.702 15.3701 187.743 16.6783 188.805 17.9223C189.336 18.5389 189.91 19.1233 190.504 19.6595C191.078 20.2118 191.683 20.7265 192.331 21.1769C193.616 22.0563 194.971 22.7801 196.5 23.1769C197.647 23.461 198.863 23.5897 200.17 23.5093C208.651 33.627 215.581 45.3801 220.866 57.1708C227.584 72.1945 231.168 88.5641 230.781 105.062C230.377 123.046 224.429 141.303 216.442 157.276C210.223 169.704 201.168 179.844 189.591 187.409C179.24 194.165 167.876 199.232 156.585 204.165C148.131 207.864 138.088 211.655 127.907 215.028C106.102 207.677 83.3084 197.725 67.5146 188.723C59.2565 184.026 51.7897 178.256 45.6028 170.975C39.4265 163.699 34.9708 155.061 31.3967 146.241C24.6149 129.507 20.3133 112.188 21.3648 94.0115C22.5969 72.8109 30.8444 52.5432 42.3367 34.9563C45.2841 30.4577 48.4864 25.9646 51.9543 21.7341C53.2077 21.7931 54.3813 21.659 55.5125 21.3856C57.026 20.9995 58.3749 20.2757 59.6813 19.3856C60.3027 18.9353 60.9188 18.4258 61.4923 17.8736C62.0924 17.3428 62.6606 16.7583 63.1917 16.1417C64.2698 14.8924 65.2894 13.5895 66.2029 12.2008C68.0404 9.47164 69.5911 6.66207 70.7276 4.53342L72.4217 1.24128C72.4801 1.08576 72.5119 1 72.5119 1L71.4764 1.09651C70.7807 1.19303 69.7822 1.36996 68.5873 1.6595C66.1923 2.24391 62.9846 3.3163 59.8938 5.01598C56.8295 6.73712 53.8396 9.02663 51.9862 11.8898C51.0302 13.2893 50.3877 14.8496 50.1115 16.4581C49.846 17.8093 49.8938 19.2355 50.2708 20.7047C42.1508 30.4363 35.4434 41.6371 30.2443 52.8594C23.8237 66.7358 19.9469 81.7381 19.3574 97.0622C18.6936 114.665 23.4413 131.533 29.9894 147.678C35.2523 160.664 42.7774 172.471 53.5422 181.49ZM181.195 213.468C185.178 212.776 188.853 211.484 191.498 210.336C194.132 209.194 195.778 208.24 195.778 208.24C195.778 208.24 194.1 207.559 191.514 206.69C188.927 205.8 185.475 204.696 181.827 203.795C178.184 202.91 174.392 202.245 170.908 202.406C169.15 202.481 167.493 202.787 165.879 203.366C164.27 203.945 162.761 204.84 161.115 206.09C162.172 209.768 165.369 212.095 169.118 213.162C172.889 214.261 177.222 214.175 181.195 213.468ZM90.8869 204.31C89.2405 203.05 87.727 202.16 86.1179 201.575C84.4981 201.007 82.8518 200.696 81.0939 200.621C77.6048 200.465 73.8024 201.119 70.1699 202.009C66.5268 202.916 63.0695 204.009 60.4779 204.905C57.9022 205.773 56.224 206.444 56.224 206.444C56.224 206.444 57.8704 207.409 60.5098 208.551C63.1598 209.688 66.8188 210.985 70.8125 211.682C74.7742 212.385 79.1131 212.47 82.8783 211.377C86.6277 210.304 89.8247 207.983 90.8869 204.31ZM161.615 200.272C163.213 199.967 164.705 199.195 166.065 198.187C168.757 196.133 170.818 193.002 172.241 189.795C173.665 186.584 174.435 183.281 174.854 180.82C175.056 179.586 175.167 178.557 175.242 177.838C175.306 177.125 175.327 176.707 175.327 176.707C175.327 176.707 174.063 177.388 172.22 178.557C170.367 179.731 167.918 181.372 165.513 183.34C163.128 185.313 160.797 187.602 159.161 190.251C157.536 192.911 156.5 195.951 156.601 199.795C158.258 200.508 159.99 200.594 161.615 200.272ZM79.7663 187.999C81.1789 191.211 83.2395 194.353 85.9426 196.401C87.2862 197.409 88.7891 198.176 90.4036 198.492C92.0127 198.808 93.7334 198.723 95.4168 198.01C95.5018 194.165 94.4609 191.125 92.8306 188.46C91.2002 185.817 88.8794 183.522 86.4843 181.554C84.0892 179.592 81.6303 177.946 79.7822 176.777C77.9341 175.603 76.6702 174.916 76.6702 174.916C76.6702 174.916 76.6861 175.34 76.7551 176.058C76.8242 176.777 76.9463 177.806 77.1428 179.039C77.557 181.495 78.3377 184.793 79.7663 187.999ZM208.035 186.23C204.259 186.358 200.414 186.621 197.138 187.64C193.845 188.669 191.094 190.439 189.299 193.693C191.546 196.771 194.785 198.197 198.423 198.363C202.071 198.546 206.113 197.473 209.804 195.779C213.505 194.09 216.851 191.79 219.214 189.811C220.404 188.841 221.349 187.945 222.002 187.329C222.65 186.685 222.995 186.305 222.995 186.305C222.995 186.305 221.19 186.273 218.322 186.219C215.518 186.203 211.79 186.117 208.035 186.23ZM53.574 196.578C57.2171 196.401 60.446 194.991 62.7137 191.913C60.9081 188.648 58.1518 186.884 54.8645 185.854C51.5772 184.836 47.7429 184.562 43.9776 184.444C40.2124 184.332 36.479 184.417 33.6802 184.428C30.8018 184.487 29.0069 184.509 29.0069 184.509C29.0069 184.509 29.3467 184.905 29.9999 185.543C30.6531 186.149 31.5985 187.05 32.7721 188.026C35.146 189.999 38.497 192.31 42.1932 193.994C45.9001 195.683 49.9256 196.755 53.574 196.578ZM182.947 188.042C186.521 188.235 189.426 186.492 191.498 183.838C193.547 181.179 194.796 177.651 195.284 174.209C195.789 170.75 195.629 167.447 195.226 165.04C195.045 163.839 194.833 162.863 194.652 162.177C194.482 161.496 194.349 161.115 194.349 161.115L192.156 163.544C190.823 165.061 189.017 167.163 187.228 169.63C185.465 172.107 183.712 174.938 182.708 178.031C181.737 181.141 181.482 184.509 182.947 188.042ZM60.5099 182.053C62.5758 184.702 65.4701 186.444 69.0654 186.257C70.5153 182.723 70.2657 179.345 69.2779 176.246C68.2901 173.158 66.5376 170.321 64.7691 167.849C62.9847 165.378 61.1791 163.27 59.8461 161.758L57.6422 159.335C57.6422 159.335 57.5147 159.71 57.3342 160.391C57.1589 161.077 56.9571 162.053 56.7712 163.254C56.3836 165.662 56.2083 168.965 56.7181 172.423C57.2173 175.86 58.4441 179.393 60.5099 182.053ZM232.369 169.174L234.418 166.504C234.955 165.758 235.459 165.013 235.921 164.289C236.867 162.836 237.685 161.442 238.364 160.246C239.017 159.04 239.533 158.032 239.878 157.313C240.218 156.584 240.372 156.15 240.372 156.15C240.372 156.15 238.699 156.638 236.107 157.458C233.547 158.279 230.175 159.485 226.899 161.04C226.065 161.431 225.258 161.839 224.45 162.289C223.59 162.783 222.735 163.287 221.928 163.791C221.11 164.295 220.303 164.782 219.549 165.313C218.784 165.828 218.03 166.332 217.355 166.895C214.594 169.072 212.544 171.571 211.699 175.254C214.732 177.554 218.29 177.946 221.96 176.755C225.613 175.592 229.352 172.814 232.369 169.174ZM15.8789 155.662C13.3032 154.847 11.6303 154.364 11.6303 154.364C11.6303 154.364 11.7843 154.793 12.1136 155.523C12.4588 156.236 12.9845 157.254 13.6484 158.456C14.3122 159.651 15.1247 161.04 16.0647 162.498C16.5427 163.228 17.0472 163.973 17.5836 164.723L18.5289 166C18.9006 166.466 19.2671 166.933 19.6282 167.394C22.65 171.024 26.3781 173.801 30.0424 174.965C33.7121 176.155 37.2703 175.774 40.3133 173.463C39.4583 169.79 37.4083 167.286 34.6415 165.104C33.9723 164.547 33.2182 164.048 32.4641 163.522C31.7046 163.002 30.8921 162.509 30.0796 162.016C29.2564 161.496 28.4174 160.997 27.5517 160.504C26.7392 160.053 25.9373 159.651 25.1141 159.26C21.8268 157.694 18.4599 156.493 15.8789 155.662ZM210.393 153.807C209.437 150.386 208.056 147.308 206.914 145.099C206.341 143.989 205.836 143.11 205.427 142.488C205.018 141.866 204.785 141.518 204.785 141.518L203.415 144.997C203.022 146.064 202.591 147.324 202.209 148.729C201.832 150.091 201.418 151.839 201.306 152.874C200.982 155.308 200.595 158.22 200.759 161.287C200.961 164.353 201.715 167.608 204.11 170.568C207.567 169.758 209.825 167.158 210.807 163.973C211.035 163.174 211.232 162.354 211.317 161.506C211.391 160.654 211.423 159.807 211.375 158.949C211.296 158.091 211.179 157.244 211.009 156.423C210.834 155.539 210.621 154.659 210.393 153.807ZM41.1894 162.193C42.1666 165.367 44.4342 167.978 47.8808 168.782C50.2866 165.812 51.0407 162.568 51.2372 159.501C51.4178 156.434 51.0248 153.528 50.6955 151.088C50.5787 150.054 50.1697 148.311 49.7927 146.944C49.405 145.539 48.9748 144.274 48.5819 143.217C48.1942 142.15 47.8277 141.287 47.5728 140.686C47.3551 140.075 47.2276 139.732 47.2276 139.732C47.2276 139.732 46.9674 140.075 46.5744 140.697C46.1549 141.325 45.6716 142.209 45.0821 143.314C43.9403 145.517 42.5649 148.606 41.6089 152.021C41.3646 152.879 41.1629 153.753 40.9876 154.638C40.823 155.464 40.7008 156.311 40.6158 157.169C40.5786 158.021 40.6105 158.868 40.6849 159.726C40.7698 160.573 40.9663 161.388 41.1894 162.193ZM248.672 127.1C248.874 126.306 248.943 125.845 248.943 125.845C248.943 125.845 247.413 126.665 244.986 127.984C242.612 129.309 239.5 131.142 236.558 133.282C233.505 135.384 230.494 137.764 228.544 140.499C228.067 141.19 227.583 141.877 227.174 142.595C226.781 143.319 226.441 144.059 226.213 144.837C225.73 146.386 225.597 148.064 225.91 149.898C229.532 150.965 232.883 150.145 235.894 148.198C236.649 147.716 237.366 147.158 238.083 146.552C238.778 145.941 239.479 145.292 240.079 144.558C241.301 143.11 242.427 141.496 243.43 139.85C245.517 136.585 246.781 133.008 247.684 130.344C248.125 129.008 248.46 127.882 248.672 127.1ZM11.9272 142.772C12.522 143.512 13.2124 144.156 13.9294 144.767C14.6304 145.378 15.3632 145.925 16.1174 146.418C19.1179 148.365 22.4583 149.185 26.0961 148.113C26.3988 146.279 26.2607 144.601 25.7828 143.046C25.5491 142.279 25.2198 141.528 24.8163 140.81C24.4286 140.086 23.9241 139.41 23.4567 138.713C21.5024 135.973 18.4859 133.604 15.4535 131.491C12.5008 129.357 9.39405 127.523 7.01485 126.194C4.58786 124.88 3.0531 124.059 3.0531 124.059C3.0531 124.059 3.12744 124.526 3.32923 125.32C3.53634 126.102 3.87092 127.218 4.31173 128.558C5.21986 131.223 6.47316 134.799 8.57086 138.059C9.57991 139.705 10.7058 141.325 11.9272 142.772ZM217.227 146.869C218.677 145.85 219.718 144.558 220.424 143.115C220.785 142.402 221.04 141.641 221.242 140.863C221.428 140.075 221.587 139.276 221.571 138.429C221.593 135.062 220.632 131.523 219.16 128.376C217.578 125.212 215.655 122.488 214.126 120.58C213.345 119.62 212.692 118.869 212.166 118.349C211.662 117.829 211.359 117.545 211.359 117.545C211.359 117.545 211.285 117.893 211.194 118.51C211.056 119.127 210.855 120.006 210.674 121.089C210.276 123.239 210.095 126.188 209.888 129.33C209.824 130.907 209.888 132.547 210.1 134.188L210.462 136.622C210.6 137.432 210.796 138.22 211.056 138.998C212.055 142.091 213.929 144.96 217.227 146.869ZM31.5712 141.335C32.2775 142.778 33.3184 144.054 34.7576 145.078C38.0555 143.169 39.9461 140.311 40.9445 137.212C41.2047 136.435 41.3906 135.641 41.534 134.831L41.9058 132.403C42.1129 130.762 42.166 129.121 42.1129 127.545C41.9058 124.408 41.7199 121.448 41.3216 119.293C41.1463 118.22 40.9445 117.336 40.8171 116.725C40.7055 116.103 40.6418 115.765 40.6418 115.765C40.6418 115.765 40.3391 116.044 39.8346 116.564C39.3035 117.084 38.645 117.829 37.8856 118.783C36.3349 120.698 34.4071 123.427 32.851 126.596C31.3641 129.732 30.4134 133.271 30.4294 136.638C30.4241 137.491 30.5622 138.295 30.7533 139.073C30.9499 139.861 31.226 140.617 31.5712 141.335ZM240.583 103.963C239.967 104.644 239.362 105.352 238.788 106.071C238.215 106.778 237.641 107.508 237.062 108.231C235.952 109.701 234.991 111.202 234.29 112.741C233.934 113.502 233.674 114.29 233.44 115.068C233.175 115.851 232.994 116.644 232.915 117.448C232.734 119.057 232.915 120.724 233.563 122.456C237.322 122.816 240.472 121.357 243.063 118.826C243.701 118.194 244.322 117.491 244.896 116.746C245.458 115.99 245.931 115.175 246.398 114.328C247.323 112.628 248.114 110.794 248.778 108.934C249.133 108.017 249.362 107.068 249.585 106.13C249.808 105.207 249.994 104.296 250.158 103.406C250.488 101.631 250.774 99.9689 250.875 98.5427C251.045 95.6795 250.992 93.7867 250.992 93.7867C250.992 93.7867 249.606 94.9663 247.662 96.8322C245.772 98.7088 243.042 101.218 240.583 103.963ZM5.59628 112.542C6.05831 113.384 6.54688 114.205 7.09922 114.961C7.67277 115.706 8.29412 116.397 8.93668 117.036C11.5389 119.577 14.6616 121.035 18.4375 120.676C19.0748 118.934 19.266 117.266 19.0854 115.663C18.9898 114.859 18.8093 114.065 18.565 113.288C18.3154 112.499 18.0551 111.722 17.6993 110.961C17.0089 109.422 16.0371 107.915 14.9271 106.451C14.3536 105.727 13.7747 104.998 13.2118 104.28C12.6382 103.567 12.0434 102.864 11.4274 102.183C8.95794 99.4327 6.22824 96.9234 4.33233 95.0414C2.38334 93.1808 1.00786 91.9959 1.00786 91.9959C1.00786 91.9959 0.954737 93.894 1.12471 96.7572C1.21498 98.1834 1.51236 99.8402 1.83632 101.62C1.99565 102.51 2.19743 103.427 2.4152 104.355C2.63293 105.277 2.8613 106.226 3.21181 107.148C3.88095 109.004 4.67223 110.843 5.59628 112.542ZM226.998 116.172C227.205 115.4 227.338 114.612 227.375 113.818C227.402 113.014 227.285 112.194 227.136 111.379C226.828 109.749 226.255 108.124 225.506 106.58C225.32 106.194 225.118 105.808 224.927 105.433C224.699 105.057 224.449 104.687 224.205 104.317C223.716 103.588 223.175 102.875 222.638 102.21C221.56 100.859 220.418 99.6472 219.298 98.5909C218.761 98.0601 218.183 97.5722 217.625 97.1218C217.062 96.6821 216.526 96.2692 216.032 95.91C214.035 94.4677 212.638 93.6795 212.638 93.6795C212.638 93.6795 212.617 95.0575 212.84 97.1486C212.925 97.6741 212.946 98.2424 212.978 98.8483C213.026 99.4595 213.079 100.103 213.164 100.773C213.313 102.114 213.621 103.567 213.897 105.063C214.152 106.559 214.523 108.103 215.06 109.615C215.315 110.365 215.623 111.121 215.968 111.856C216.276 112.585 216.616 113.309 217.009 113.995C218.586 116.762 220.976 119.17 224.571 120.419C225.803 119.153 226.579 117.706 226.998 116.172ZM27.4122 118.639C31.0075 117.384 33.4133 114.977 34.9905 112.21C35.3888 111.513 35.734 110.8 36.0315 110.065C36.3766 109.331 36.6793 108.58 36.9449 107.824C37.4759 106.312 37.8477 104.773 38.0973 103.277C38.3894 101.787 38.6868 100.333 38.8302 98.9877C38.9152 98.3175 38.9682 97.6741 39.016 97.0628C39.0532 96.4569 39.0745 95.8832 39.1488 95.3578C39.3825 93.272 39.3506 91.8994 39.3506 91.8994C39.3506 91.8994 37.9539 92.6768 35.9624 94.1245C35.4738 94.4784 34.9374 94.8913 34.3851 95.3363C33.8116 95.7867 33.238 96.2746 32.6963 96.8054C31.5917 97.8617 30.4446 99.0788 29.3559 100.419C28.8195 101.095 28.2991 101.797 27.7893 102.526C27.5503 102.891 27.3113 103.272 27.0829 103.647C26.8758 104.022 26.6687 104.408 26.4882 104.795C25.7446 106.339 25.1658 107.958 24.8524 109.593C24.7144 110.408 24.6082 111.229 24.6241 112.028C24.6666 112.827 24.794 113.62 24.9958 114.381C25.4207 115.92 26.1961 117.373 27.4122 118.639ZM233.732 84.5537C233.35 86.2159 233.249 87.8351 233.493 89.4329C233.605 90.2318 233.859 91.0093 234.13 91.7921C234.396 92.575 234.773 93.3524 235.256 94.1192C238.995 93.583 241.889 91.4222 243.658 88.3177C244.592 86.7681 245.299 84.988 245.872 83.1007C246.361 81.224 246.61 79.2455 246.78 77.267C246.855 76.2804 246.913 75.2885 246.924 74.3287C246.892 73.3743 246.839 72.4413 246.78 71.5459C246.642 69.739 246.451 68.0715 246.244 66.6506C245.676 63.8517 245.139 62.0394 245.139 62.0394C245.139 62.0394 244.114 63.53 242.691 65.8356C241.995 66.9723 241.178 68.3235 240.275 69.8141C239.393 71.2939 238.49 72.8864 237.657 74.5271C236.855 76.1518 235.973 77.8514 235.277 79.5297C234.566 81.224 234.061 82.9023 233.732 84.5537ZM226.573 84.0711C225.893 82.5805 224.879 81.1757 223.764 79.8889C223.196 79.2455 222.596 78.6235 221.979 78.0498C221.358 77.4654 220.631 76.9346 219.951 76.4252C217.147 74.4145 214.327 72.9722 211.974 72.1196C209.696 71.251 208.14 70.8811 208.14 70.8811C208.14 70.8811 208.469 72.1947 209.213 74.1196C209.537 75.1008 209.903 76.2536 210.423 77.4761C210.668 78.082 210.949 78.72 211.252 79.3635C211.56 80.0123 211.81 80.6878 212.144 81.3527C212.76 82.6931 213.541 84.0389 214.433 85.3419C215.23 86.6502 216.191 87.9048 217.327 89.0308C219.643 91.2452 222.367 93.0039 226.164 93.3632C226.621 92.6071 226.977 91.8404 227.226 91.0683C227.481 90.2801 227.534 89.4919 227.561 88.7091C227.561 87.1381 227.184 85.5671 226.573 84.0711ZM14.3533 72.7363C13.5089 71.1063 12.6008 69.5138 11.7139 68.0286C10.8058 66.5327 9.98796 65.1868 9.30288 64.0447C7.88493 61.7499 6.85468 60.254 6.85468 60.254C6.85468 60.254 6.31831 62.0609 5.75537 64.8651C5.54292 66.286 5.34646 67.9535 5.219 69.7605C5.14462 70.6666 5.09155 71.5942 5.07029 72.5486C5.07029 73.5084 5.13402 74.495 5.219 75.4815C5.38893 77.4493 5.63852 79.4385 6.13774 81.3152C6.69003 83.2025 7.41762 84.9827 8.33635 86.5269C10.1207 89.6367 13.0044 91.7975 16.7379 92.3283C17.2264 91.5616 17.5875 90.7895 17.8637 90.0066C18.1292 89.2238 18.3895 88.441 18.4957 87.6528C18.7559 86.0604 18.6338 84.425 18.2514 82.7682C17.938 81.1114 17.4335 79.4385 16.7272 77.7495C16.0262 76.0659 15.1553 74.3663 14.3533 72.7363ZM34.672 87.2346C35.8085 86.1193 36.7644 84.8647 37.5663 83.5511C38.4426 82.2535 39.2339 80.913 39.8552 79.5619C40.1845 78.897 40.4288 78.2268 40.7474 77.5834C41.0501 76.9346 41.3316 76.3019 41.5759 75.6906C42.0963 74.4628 42.4468 73.3153 42.7867 72.3395C43.5302 70.4039 43.8435 69.0956 43.8435 69.0956C43.8435 69.0956 42.3034 69.4709 40.0146 70.3395C37.6672 71.1867 34.8473 72.629 32.0485 74.6397C31.3635 75.1437 30.6412 75.6799 30.0198 76.2697C29.3985 76.8434 28.7984 77.4547 28.2301 78.0981C27.1255 79.3903 26.1006 80.7951 25.4314 82.2856C24.7995 83.7816 24.449 85.3472 24.449 86.9236C24.449 87.7064 24.518 88.4946 24.757 89.2721C25.0225 90.0549 25.3624 90.827 25.8457 91.5777C29.6322 91.2238 32.3513 89.4597 34.672 87.2346ZM220.487 60.0609C220.126 59.3586 219.717 58.6722 219.17 58.061C218.119 56.8171 216.85 55.7018 215.453 54.742C214.056 53.7876 212.436 53.037 210.886 52.3989C210.1 52.0879 209.314 51.7984 208.544 51.5571C207.774 51.3051 206.967 51.1121 206.207 50.9405C204.699 50.592 203.297 50.3614 202.107 50.2167C200.902 50.0665 199.919 49.9861 199.202 49.9647C198.475 49.9271 198.082 49.9325 198.082 49.9325C198.082 49.9325 198.246 50.2327 198.581 50.7421C198.878 51.2568 199.293 52.0021 199.877 52.8708C200.158 53.3051 200.472 53.7715 200.827 54.2595L201.932 55.8144C202.691 56.8975 203.584 58.0288 204.587 59.1387C205.517 60.2861 206.573 61.4014 207.758 62.4255L209.558 63.9107C210.169 64.3772 210.817 64.8115 211.502 65.1976C212.845 65.9911 214.396 66.597 215.968 66.9509C217.545 67.3048 219.271 67.3905 221.141 67.0742C221.401 66.2324 221.56 65.4013 221.592 64.5863C221.592 63.7874 221.491 63.0046 221.311 62.2539C221.119 61.4925 220.833 60.7633 220.487 60.0609ZM231.725 33.1715C231.725 33.1715 231.109 34.8229 230.227 37.418C229.346 40.0131 228.353 43.4071 227.429 47.021C226.977 48.8226 226.674 50.6242 226.398 52.4257C226.127 54.238 226.005 56.002 226.127 57.6535C226.212 58.4846 226.276 59.3103 226.43 60.0985C226.589 60.9028 226.818 61.6641 227.136 62.3987C227.45 63.1226 227.848 63.8249 228.342 64.4898C228.804 65.1654 229.367 65.8141 230.02 66.4254C231.783 65.6801 233.191 64.6131 234.301 63.2887C235.442 61.959 236.149 60.4148 236.669 58.683C236.935 57.8197 237.121 56.9189 237.275 55.9806C237.402 55.0423 237.503 54.0772 237.482 53.1281C237.471 51.2032 237.275 49.214 236.967 47.2837C236.212 43.4769 235.002 39.8523 233.801 37.3269C233.238 36.0454 232.723 34.9945 232.357 34.2653C231.969 33.5575 231.725 33.1715 231.725 33.1715ZM53.4293 48.9566C53.748 48.4419 53.9179 48.147 53.9179 48.147C53.9179 48.147 53.509 48.147 52.8026 48.1738C52.0804 48.2006 51.0926 48.2757 49.8924 48.4258C48.6975 48.5759 47.3008 48.8065 45.782 49.1604C45.0278 49.3373 44.2259 49.5196 43.4559 49.7716C42.6911 50.0183 41.9051 50.2917 41.1139 50.6134C39.5578 51.2461 37.9434 52.0128 36.536 52.9566C35.1446 53.9163 33.8648 55.0262 32.8186 56.2755C32.2769 56.8921 31.868 57.5677 31.5121 58.2755C31.167 58.9725 30.8908 59.7071 30.689 60.4631C30.5031 61.2245 30.4022 62.0019 30.4022 62.8062C30.4447 63.6158 30.5987 64.4469 30.8642 65.2941C32.7177 65.605 34.4543 65.5139 36.0368 65.1654C37.6035 64.8008 39.1436 64.2056 40.4978 63.4228C41.1829 63.0314 41.8149 62.5917 42.4415 62.1253L44.2312 60.64C45.4208 59.6159 46.4723 58.4953 47.407 57.3532C48.4001 56.2433 49.3082 55.112 50.0677 54.0289L52.1229 51.0907C52.6964 50.2167 53.1213 49.4714 53.4293 48.9566ZM23.647 62.7043C24.1515 62.0395 24.5446 61.3424 24.8632 60.6078C25.1818 59.8733 25.4102 59.1065 25.5695 58.313C25.7235 57.5194 25.7819 56.6937 25.8722 55.868C25.989 54.2058 25.8722 52.4472 25.5961 50.6403C25.3252 48.8279 25.0225 47.0371 24.5552 45.2302C23.647 41.6217 22.6486 38.2223 21.7724 35.6326C20.8802 33.0374 20.2694 31.3806 20.2694 31.3806C20.2694 31.3806 20.0305 31.772 19.6428 32.4851C19.2657 33.2144 18.7559 34.2545 18.1983 35.536C16.9874 38.0722 15.7872 41.6914 15.0278 45.4929C14.7198 47.4339 14.5127 49.4124 14.5127 51.3319C14.4914 52.2863 14.587 53.2568 14.7357 54.1898C14.8791 55.1334 15.065 56.0342 15.3146 56.8975C15.8403 58.6293 16.552 60.1682 17.6885 61.4979C18.809 62.8276 20.2216 63.8893 21.9636 64.6399C22.638 64.0287 23.1903 63.3799 23.647 62.7043ZM205.713 34.7907C203.121 32.839 199.728 31.6809 196.361 31.1822C194.693 30.9088 193.015 30.8123 191.459 30.7962C189.908 30.7962 188.496 30.8552 187.28 30.9731C184.831 31.2251 183.27 31.5629 183.27 31.5629C183.27 31.5629 183.493 31.8256 183.907 32.2707C184.327 32.7157 184.97 33.3163 185.692 34.0723C186.435 34.8175 187.375 35.6433 188.384 36.5333C189.367 37.4341 190.525 38.3402 191.735 39.2303C192.93 40.1365 194.253 40.989 195.633 41.7236C196.988 42.4957 198.421 43.1337 199.956 43.5573C202.962 44.4474 206.249 44.5868 209.749 43.0426C209.834 41.3 209.484 39.7129 208.788 38.3188C208.039 36.9623 206.982 35.7827 205.713 34.7907ZM60.2536 37.4448C61.4698 36.5548 62.6328 35.654 63.6153 34.7425C64.6349 33.8524 65.559 33.032 66.2918 32.2868C67.03 31.5308 67.6673 30.9249 68.0869 30.4798C68.5064 30.0455 68.7294 29.7828 68.7294 29.7828C68.7294 29.7828 67.1628 29.4343 64.7199 29.1876C63.4985 29.0697 62.0911 29.0054 60.5351 29.0161C58.979 29.0268 57.3009 29.1287 55.6492 29.4021C52.2717 29.9008 48.8781 31.0535 46.2865 32.9945C45.0279 33.9972 43.9605 35.1768 43.217 36.5387C42.5213 37.9274 42.1655 39.5145 42.2451 41.2571C45.7395 42.7959 49.0322 42.6565 52.038 41.7772C53.5728 41.3429 55.0226 40.7048 56.3662 39.9434C57.7417 39.1981 59.064 38.3563 60.2536 37.4448ZM218.119 41.1499C221.14 38.8603 222.532 35.654 222.755 32.0616C222.85 30.2922 222.649 28.4263 222.261 26.5496C221.857 24.6784 221.209 22.8607 220.477 21.0752C219.738 19.3058 218.825 17.6758 217.954 16.1584C217.083 14.6464 216.122 13.3489 215.336 12.2283C214.534 11.1076 213.801 10.239 213.265 9.63312C212.755 9.04334 212.452 8.70554 212.452 8.70554C212.452 8.70554 212.155 10.4803 211.879 13.1237C211.725 14.4748 211.565 16.0458 211.443 17.7241C211.379 18.5659 211.332 19.4291 211.294 20.3138C211.241 21.2093 211.199 22.1315 211.193 23.0537C211.146 26.6944 211.305 30.4691 212.272 33.6433C212.734 35.2572 213.397 36.7103 214.375 37.9596C215.293 39.241 216.504 40.3295 218.119 41.1499ZM33.8806 39.3697C35.495 38.544 36.6953 37.4555 37.614 36.1741C38.5965 34.9301 39.2657 33.4664 39.717 31.8525C40.6995 28.689 40.8482 24.9143 40.8163 21.2683C40.8004 20.3406 40.7579 19.4238 40.7048 18.5284C40.6783 17.649 40.6146 16.7804 40.5561 15.9386C40.4287 14.255 40.264 12.684 40.1153 11.3382C39.8445 8.68408 39.5471 6.92006 39.5471 6.92006C39.5471 6.92006 39.2444 7.26319 38.7186 7.85302C38.2088 8.45351 37.4759 9.31679 36.674 10.4481C35.8615 11.5688 34.9162 12.8609 34.0293 14.3729C33.169 15.8904 32.2556 17.5204 31.5227 19.2898C30.8004 21.0752 30.1366 22.8982 29.7383 24.7641C29.3347 26.6354 29.1488 28.5013 29.2338 30.2761C29.4621 33.8632 30.8641 37.0749 33.8806 39.3697Z" fill="#107AF2" stroke="#107AF2" stroke-width="0.00746239" stroke-miterlimit="20"/>
<path d="M65.1637 98.53C65.1637 96.49 65.6337 94.66 66.5737 93.04C67.5337 91.42 68.8237 90.16 70.4437 89.26C72.0837 88.34 73.8737 87.88 75.8137 87.88C78.0337 87.88 80.0037 88.43 81.7237 89.53C83.4637 90.61 84.7237 92.15 85.5037 94.15H81.3937C80.8537 93.05 80.1037 92.23 79.1437 91.69C78.1837 91.15 77.0737 90.88 75.8137 90.88C74.4337 90.88 73.2037 91.19 72.1237 91.81C71.0437 92.43 70.1937 93.32 69.5737 94.48C68.9737 95.64 68.6737 96.99 68.6737 98.53C68.6737 100.07 68.9737 101.42 69.5737 102.58C70.1937 103.74 71.0437 104.64 72.1237 105.28C73.2037 105.9 74.4337 106.21 75.8137 106.21C77.0737 106.21 78.1837 105.94 79.1437 105.4C80.1037 104.86 80.8537 104.04 81.3937 102.94H85.5037C84.7237 104.94 83.4637 106.48 81.7237 107.56C80.0037 108.64 78.0337 109.18 75.8137 109.18C73.8537 109.18 72.0637 108.73 70.4437 107.83C68.8237 106.91 67.5337 105.64 66.5737 104.02C65.6337 102.4 65.1637 100.57 65.1637 98.53ZM98.0568 92.2C99.3168 92.2 100.437 92.47 101.417 93.01C102.417 93.55 103.197 94.35 103.757 95.41C104.337 96.47 104.627 97.75 104.627 99.25V109H101.237V99.76C101.237 98.28 100.867 97.15 100.127 96.37C99.3868 95.57 98.3768 95.17 97.0968 95.17C95.8168 95.17 94.7968 95.57 94.0368 96.37C93.2968 97.15 92.9268 98.28 92.9268 99.76V109H89.5068V86.8H92.9268V94.39C93.5068 93.69 94.2368 93.15 95.1168 92.77C96.0168 92.39 96.9968 92.2 98.0568 92.2ZM107.849 100.66C107.849 99 108.189 97.53 108.869 96.25C109.569 94.97 110.509 93.98 111.689 93.28C112.889 92.56 114.209 92.2 115.649 92.2C116.949 92.2 118.079 92.46 119.039 92.98C120.019 93.48 120.799 94.11 121.379 94.87V92.47H124.829V109H121.379V106.54C120.799 107.32 120.009 107.97 119.009 108.49C118.009 109.01 116.869 109.27 115.589 109.27C114.169 109.27 112.869 108.91 111.689 108.19C110.509 107.45 109.569 106.43 108.869 105.13C108.189 103.81 107.849 102.32 107.849 100.66ZM121.379 100.72C121.379 99.58 121.139 98.59 120.659 97.75C120.199 96.91 119.589 96.27 118.829 95.83C118.069 95.39 117.249 95.17 116.369 95.17C115.489 95.17 114.669 95.39 113.909 95.83C113.149 96.25 112.529 96.88 112.049 97.72C111.589 98.54 111.359 99.52 111.359 100.66C111.359 101.8 111.589 102.8 112.049 103.66C112.529 104.52 113.149 105.18 113.909 105.64C114.689 106.08 115.509 106.3 116.369 106.3C117.249 106.3 118.069 106.08 118.829 105.64C119.589 105.2 120.199 104.56 120.659 103.72C121.139 102.86 121.379 101.86 121.379 100.72ZM132.741 94.87C133.241 94.03 133.901 93.38 134.721 92.92C135.561 92.44 136.551 92.2 137.691 92.2V95.74H136.821C135.481 95.74 134.461 96.08 133.761 96.76C133.081 97.44 132.741 98.62 132.741 100.3V109H129.321V92.47H132.741V94.87ZM147.495 92.2C148.775 92.2 149.905 92.46 150.885 92.98C151.885 93.48 152.665 94.11 153.225 94.87V92.47H156.675V109.27C156.675 110.79 156.355 112.14 155.715 113.32C155.075 114.52 154.145 115.46 152.925 116.14C151.725 116.82 150.285 117.16 148.605 117.16C146.365 117.16 144.505 116.63 143.025 115.57C141.545 114.53 140.705 113.11 140.505 111.31H143.895C144.155 112.17 144.705 112.86 145.545 113.38C146.405 113.92 147.425 114.19 148.605 114.19C149.985 114.19 151.095 113.77 151.935 112.93C152.795 112.09 153.225 110.87 153.225 109.27V106.51C152.645 107.29 151.855 107.95 150.855 108.49C149.875 109.01 148.755 109.27 147.495 109.27C146.055 109.27 144.735 108.91 143.535 108.19C142.355 107.45 141.415 106.43 140.715 105.13C140.035 103.81 139.695 102.32 139.695 100.66C139.695 99 140.035 97.53 140.715 96.25C141.415 94.97 142.355 93.98 143.535 93.28C144.735 92.56 146.055 92.2 147.495 92.2ZM153.225 100.72C153.225 99.58 152.985 98.59 152.505 97.75C152.045 96.91 151.435 96.27 150.675 95.83C149.915 95.39 149.095 95.17 148.215 95.17C147.335 95.17 146.515 95.39 145.755 95.83C144.995 96.25 144.375 96.88 143.895 97.72C143.435 98.54 143.205 99.52 143.205 100.66C143.205 101.8 143.435 102.8 143.895 103.66C144.375 104.52 144.995 105.18 145.755 105.64C146.535 106.08 147.355 106.3 148.215 106.3C149.095 106.3 149.915 106.08 150.675 105.64C151.435 105.2 152.045 104.56 152.505 103.72C152.985 102.86 153.225 101.86 153.225 100.72ZM176.317 100.33C176.317 100.95 176.277 101.51 176.197 102.01H163.567C163.667 103.33 164.157 104.39 165.037 105.19C165.917 105.99 166.997 106.39 168.277 106.39C170.117 106.39 171.417 105.62 172.177 104.08H175.867C175.367 105.6 174.457 106.85 173.137 107.83C171.837 108.79 170.217 109.27 168.277 109.27C166.697 109.27 165.277 108.92 164.017 108.22C162.777 107.5 161.797 106.5 161.077 105.22C160.377 103.92 160.027 102.42 160.027 100.72C160.027 99.02 160.367 97.53 161.047 96.25C161.747 94.95 162.717 93.95 163.957 93.25C165.217 92.55 166.657 92.2 168.277 92.2C169.837 92.2 171.227 92.54 172.447 93.22C173.667 93.9 174.617 94.86 175.297 96.1C175.977 97.32 176.317 98.73 176.317 100.33ZM172.747 99.25C172.727 97.99 172.277 96.98 171.397 96.22C170.517 95.46 169.427 95.08 168.127 95.08C166.947 95.08 165.937 95.46 165.097 96.22C164.257 96.96 163.757 97.97 163.597 99.25H172.747ZM183.103 94.87C183.603 94.03 184.263 93.38 185.083 92.92C185.923 92.44 186.913 92.2 188.053 92.2V95.74H187.183C185.843 95.74 184.823 96.08 184.123 96.76C183.443 97.44 183.103 98.62 183.103 100.3V109H179.683V92.47H183.103V94.87ZM109.438 133.15V135.94H100.588V142.09H107.488V144.88H100.588V154H97.168V133.15H109.438ZM114.347 135.28C113.727 135.28 113.207 135.07 112.787 134.65C112.367 134.23 112.157 133.71 112.157 133.09C112.157 132.47 112.367 131.95 112.787 131.53C113.207 131.11 113.727 130.9 114.347 130.9C114.947 130.9 115.457 131.11 115.877 131.53C116.297 131.95 116.507 132.47 116.507 133.09C116.507 133.71 116.297 134.23 115.877 134.65C115.457 135.07 114.947 135.28 114.347 135.28ZM116.027 137.47V154H112.607V137.47H116.027ZM128.858 137.2C130.158 137.2 131.318 137.47 132.338 138.01C133.378 138.55 134.188 139.35 134.768 140.41C135.348 141.47 135.638 142.75 135.638 144.25V154H132.248V144.76C132.248 143.28 131.878 142.15 131.138 141.37C130.398 140.57 129.388 140.17 128.108 140.17C126.828 140.17 125.808 140.57 125.048 141.37C124.308 142.15 123.938 143.28 123.938 144.76V154H120.518V137.47H123.938V139.36C124.498 138.68 125.208 138.15 126.068 137.77C126.948 137.39 127.878 137.2 128.858 137.2ZM138.86 145.66C138.86 144 139.2 142.53 139.88 141.25C140.58 139.97 141.52 138.98 142.7 138.28C143.9 137.56 145.23 137.2 146.69 137.2C147.77 137.2 148.83 137.44 149.87 137.92C150.93 138.38 151.77 139 152.39 139.78V131.8H155.84V154H152.39V151.51C151.83 152.31 151.05 152.97 150.05 153.49C149.07 154.01 147.94 154.27 146.66 154.27C145.22 154.27 143.9 153.91 142.7 153.19C141.52 152.45 140.58 151.43 139.88 150.13C139.2 148.81 138.86 147.32 138.86 145.66ZM152.39 145.72C152.39 144.58 152.15 143.59 151.67 142.75C151.21 141.91 150.6 141.27 149.84 140.83C149.08 140.39 148.26 140.17 147.38 140.17C146.5 140.17 145.68 140.39 144.92 140.83C144.16 141.25 143.54 141.88 143.06 142.72C142.6 143.54 142.37 144.52 142.37 145.66C142.37 146.8 142.6 147.8 143.06 148.66C143.54 149.52 144.16 150.18 144.92 150.64C145.7 151.08 146.52 151.3 147.38 151.3C148.26 151.3 149.08 151.08 149.84 150.64C150.6 150.2 151.21 149.56 151.67 148.72C152.15 147.86 152.39 146.86 152.39 145.72Z" fill="#107AF2"/>
</svg>
